<?xml version="1.0" encoding="UTF-8" standalone="no"?><!DOCTYPE svg PUBLIC "-//W3C//DTD SVG 1.1//EN" "http://www.w3.org/Graphics/SVG/1.1/DTD/svg11.dtd"><svg width="100%" height="100%" viewBox="0 0 137 137" version="1.1" xmlns="http://www.w3.org/2000/svg" xmlns:xlink="http://www.w3.org/1999/xlink" xml:space="preserve" xmlns:serif="http://www.serif.com/" style="fill-rule:evenodd;clip-rule:evenodd;stroke-linejoin:round;stroke-miterlimit:2;"><path d="M136.583,113.244c0,12.89 -10.45,23.338 -23.34,23.338l-89.903,0c-12.891,0 -23.34,-10.448 -23.34,-23.338l0,-89.904c0,-12.889 10.449,-23.34 23.34,-23.34l89.903,0c12.89,0 23.34,10.451 23.34,23.34l0,89.904Z" style="fill:#444045;fill-rule:nonzero;"/><path d="M93.716,136.582l0,-52.438l17.601,0l2.636,-20.437l-20.237,0l0,-13.047c0,-5.918 1.641,-9.949 10.127,-9.949l10.822,-0.004l0,-18.28c-1.873,-0.247 -8.295,-0.803 -15.771,-0.803c-15.6,0 -26.283,9.522 -26.283,27.013l0,15.07l-17.646,0l0,20.437l17.646,0l0,52.438l21.105,0Z" style="fill:#fff;fill-rule:nonzero;"/></svg>