<?xml version="1.0" encoding="UTF-8" standalone="no"?><!DOCTYPE svg PUBLIC "-//W3C//DTD SVG 1.1//EN" "http://www.w3.org/Graphics/SVG/1.1/DTD/svg11.dtd"><svg width="100%" height="100%" viewBox="0 0 137 137" version="1.1" xmlns="http://www.w3.org/2000/svg" xmlns:xlink="http://www.w3.org/1999/xlink" xml:space="preserve" xmlns:serif="http://www.serif.com/" style="fill-rule:evenodd;clip-rule:evenodd;stroke-linejoin:round;stroke-miterlimit:2;"><path d="M136.582,113.242c0,12.891 -10.449,23.341 -23.34,23.341l-89.9,0c-12.891,0 -23.342,-10.45 -23.342,-23.341l0,-89.903c0,-12.889 10.451,-23.339 23.342,-23.339l89.9,0c12.891,0 23.34,10.45 23.34,23.339l0,89.903Z" style="fill:#444045;fill-rule:nonzero;"/><path d="M43.147,105.013l1.575,0.987c7.104,4.454 15.253,6.807 23.569,6.807c24.547,0 44.515,-19.97 44.515,-44.516c0,-24.546 -19.968,-44.515 -44.515,-44.515c-24.546,0 -44.515,19.969 -44.515,44.515c0,9.986 3.272,19.449 9.456,27.362l1.092,1.397l-2.288,11.791l11.111,-3.828Zm25.144,15.573c-9.154,0 -18.132,-2.421 -26.083,-7.019l-20.375,7.019l4.186,-21.577c-6.564,-8.995 -10.024,-19.579 -10.024,-30.718c0,-28.835 23.459,-52.295 52.296,-52.295c28.838,0 52.297,23.46 52.297,52.295c0,28.835 -23.459,52.295 -52.297,52.295Z" style="fill:#fff;fill-rule:nonzero;"/><path d="M41.89,48.199c0,0 3.068,-5.365 5.569,-5.671c2.502,-0.308 5.722,-0.308 6.591,1.328c0.868,1.633 4.751,11.137 4.751,11.137c0,0 0.663,1.635 -0.359,3.218c-1.02,1.584 -3.318,3.881 -3.318,3.881c0,0 -1.278,1.637 0,3.373c1.277,1.738 3.258,4.93 7.357,9.026c4.091,4.096 11.951,7.015 11.951,7.015c0,0 1.125,0.153 1.84,-0.561c0.715,-0.716 4.598,-5.57 4.598,-5.57c0,0 1.249,-1.608 3.321,-0.662c2.068,0.946 11.032,5.412 11.032,5.412c0,0 1.048,0.385 1.048,1.967c0,1.585 -0.64,5.459 -1.951,6.769c-1.31,1.312 -5.142,5.348 -10.896,5.348c-5.758,0 -19.465,-4.682 -26.77,-11.987c-7.305,-7.306 -13.793,-14.714 -15.324,-21.456c-1.532,-6.744 -1.329,-9.791 0.56,-12.567Z" style="fill:#fff;fill-rule:nonzero;"/></svg>