<?xml version="1.0" encoding="UTF-8" standalone="no"?><!DOCTYPE svg PUBLIC "-//W3C//DTD SVG 1.1//EN" "http://www.w3.org/Graphics/SVG/1.1/DTD/svg11.dtd"><svg width="100%" height="100%" viewBox="0 0 137 137" version="1.1" xmlns="http://www.w3.org/2000/svg" xmlns:xlink="http://www.w3.org/1999/xlink" xml:space="preserve" xmlns:serif="http://www.serif.com/" style="fill-rule:evenodd;clip-rule:evenodd;stroke-linejoin:round;stroke-miterlimit:2;"><path d="M136.581,113.242c0,12.891 -10.448,23.341 -23.339,23.341l-89.904,0c-12.891,0 -23.338,-10.45 -23.338,-23.341l0,-89.903c0,-12.889 10.447,-23.339 23.338,-23.339l89.904,0c12.891,0 23.339,10.45 23.339,23.339l0,89.903Z" style="fill:#444045;fill-rule:nonzero;"/><path d="M46.542,21.897c-15.016,0 -27.23,12.215 -27.23,27.229l0,38.331c0,15.015 12.214,27.23 27.23,27.23l43.497,0c15.014,0 27.229,-12.215 27.229,-27.23l0,-38.331c0,-15.014 -12.215,-27.229 -27.229,-27.229l-43.497,0Zm43.497,100.572l-43.497,0c-19.305,0 -35.012,-15.707 -35.012,-35.012l0,-38.331c0,-19.304 15.707,-35.009 35.012,-35.009l43.497,0c19.303,0 35.01,15.705 35.01,35.009l0,38.331c0,19.305 -15.707,35.012 -35.01,35.012Z" style="fill:#fff;fill-rule:nonzero;"/><path d="M68.29,44.907c-12.894,0 -23.385,10.49 -23.385,23.385c0,12.894 10.491,23.384 23.385,23.384c12.894,0 23.384,-10.49 23.384,-23.384c0,-12.895 -10.49,-23.385 -23.384,-23.385Zm0,54.551c-17.185,0 -31.164,-13.981 -31.164,-31.166c0,-17.186 13.979,-31.164 31.164,-31.164c17.185,0 31.164,13.978 31.164,31.164c0,17.185 -13.979,31.166 -31.164,31.166Z" style="fill:#fff;fill-rule:nonzero;"/><path d="M105.444,38.086c0,3.57 -2.894,6.465 -6.465,6.465c-3.573,0 -6.469,-2.895 -6.469,-6.465c0,-3.572 2.896,-6.467 6.469,-6.467c3.571,0 6.465,2.895 6.465,6.467Z" style="fill:#fff;fill-rule:nonzero;"/></svg>