<?xml version="1.0" encoding="UTF-8" standalone="no"?><!DOCTYPE svg PUBLIC "-//W3C//DTD SVG 1.1//EN" "http://www.w3.org/Graphics/SVG/1.1/DTD/svg11.dtd"><svg width="100%" height="100%" viewBox="0 0 137 137" version="1.1" xmlns="http://www.w3.org/2000/svg" xmlns:xlink="http://www.w3.org/1999/xlink" xml:space="preserve" xmlns:serif="http://www.serif.com/" style="fill-rule:evenodd;clip-rule:evenodd;stroke-linejoin:round;stroke-miterlimit:2;"><path d="M136.581,113.242c0,12.891 -10.45,23.341 -23.341,23.341l-89.902,0c-12.889,0 -23.338,-10.45 -23.338,-23.341l0,-89.903c0,-12.889 10.449,-23.339 23.338,-23.339l89.902,0c12.891,0 23.341,10.45 23.341,23.339l0,89.903Z" style="fill:#444045;fill-rule:nonzero;"/><path d="M112.291,40.528c-2.074,0.573 -3.706,0.483 -3.706,0.483l0.067,-0.393c1.929,-1.545 6.797,-6.285 7.439,-8.502c0.28,-0.958 -0.05,-1.288 -0.052,-1.321l-6.217,2.641l-5.202,2.347c-3.591,-3.801 -9.027,-6.223 -15.104,-6.223c-10.814,0 -19.583,7.659 -19.583,17.113c0,1.729 0.258,4.882 0.801,6.456c0,0.496 0.02,-0.497 0,0c-6.964,-0.191 -15.89,-3.046 -23.839,-7.075c-15.68,-7.943 -16.661,-13.442 -16.661,-13.442c-2.463,2.614 -3.733,11.272 -1.237,18.061c1.598,4.347 7.091,8.247 7.091,8.247c0,0 -2.456,0.045 -5.029,-0.824c-2.574,-0.87 -3.546,-1.731 -3.546,-1.731c-1.53,3.73 1.54,10.394 6.846,15.175c3.092,2.788 8.74,4.536 8.74,4.536l-8.824,0.248c-0.496,8.577 17.987,13.672 17.987,13.672c-5.418,4.166 -11.703,6.703 -18.44,6.703c-3.492,0 -6.866,-0.522 -10.069,-1.478c8.901,7.334 20.341,12.399 32.781,11.745c33.002,-1.735 51.632,-30.103 52.518,-57.964l0.042,0.057c0,0 1.547,-0.771 4.853,-4.078c3.305,-3.306 5.361,-7.174 5.361,-7.174c0,0 -4.942,2.149 -7.017,2.721Z" style="fill:#fff;fill-rule:nonzero;"/></svg>